<?xml version="1.0" encoding="UTF-8" standalone="no"?>
<!-- Created with Inkscape (http://www.inkscape.org/) -->

<svg
   xmlns:dc="http://purl.org/dc/elements/1.1/"
   xmlns:cc="http://creativecommons.org/ns#"
   xmlns:rdf="http://www.w3.org/1999/02/22-rdf-syntax-ns#"
   xmlns:svg="http://www.w3.org/2000/svg"
   xmlns="http://www.w3.org/2000/svg"
   xmlns:xlink="http://www.w3.org/1999/xlink"
   xmlns:sodipodi="http://sodipodi.sourceforge.net/DTD/sodipodi-0.dtd"
   xmlns:inkscape="http://www.inkscape.org/namespaces/inkscape"
   width="744.09448819"
   height="1052.3622047"
   id="svg2"
   version="1.1"
   inkscape:version="0.48.4 r9939"
   sodipodi:docname="character.svg">
  <defs
     id="defs4">
    <radialGradient
       fx="0"
       fy="0"
       cx="0"
       cy="0"
       r="1"
       gradientUnits="userSpaceOnUse"
       gradientTransform="matrix(11.168411,0,0,-11.168411,312.84717,476.83594)"
       spreadMethod="pad"
       id="radialGradient38533">
      <stop
         style="stop-opacity:1;stop-color:#8f0d00"
         offset="0"
         id="stop38535" />
      <stop
         style="stop-opacity:1;stop-color:#450d00"
         offset="0.644577"
         id="stop38537" />
      <stop
         style="stop-opacity:1;stop-color:#000000"
         offset="0.987946"
         id="stop38539" />
      <stop
         style="stop-opacity:1;stop-color:#000000"
         offset="1"
         id="stop38541" />
    </radialGradient>
    <clipPath
       clipPathUnits="userSpaceOnUse"
       id="clipPath38509">
      <path
         inkscape:connector-curvature="0"
         d="m 0,1164.116 1404.141,0 L 1404.141,0 0,0 0,1164.116 z"
         id="path38511" />
    </clipPath>
    <clipPath
       clipPathUnits="userSpaceOnUse"
       id="clipPath38405">
      <path
         inkscape:connector-curvature="0"
         d="m 330.976,498.847 c -1,-0.334 -8.334,-7.168 -19.167,-9.5 l 0,0 c -1.961,-0.424 -1.999,-0.335 -1.666,-0.834 l 0,0 c 0.333,-0.501 4.834,-3.5 12,-2.5 l 0,0 c 7.166,0.999 9.333,9.834 8.833,11.834 l 0,0 c 0.656,0.654 0.898,1.103 0.485,1.103 l 0,0 c -0.112,0 -0.272,-0.033 -0.485,-0.103 m -47.167,-2.169 c 0,-1.165 2.833,-11.331 13,-11.831 l 0,0 c 6,0 6.5,2.499 6.5,2.499 l 0,0 0.5,1.167 c -2.833,0.165 -9.666,3.5 -13.333,6.166 l 0,0 c -3.667,2.667 -5.833,2.834 -5.833,2.834 l 0,0 c 0,0 -0.11,0.044 -0.25,0.044 l 0,0 c -0.246,0 -0.584,-0.135 -0.584,-0.879"
         id="path38407" />
    </clipPath>
    <clipPath
       clipPathUnits="userSpaceOnUse"
       id="clipPath38421">
      <path
         inkscape:connector-curvature="0"
         d="m 294.106,491.579 6.58,0 0,-3.66 -6.58,0 0,3.66 z"
         id="path38423" />
    </clipPath>
    <clipPath
       clipPathUnits="userSpaceOnUse"
       id="clipPath38437">
      <path
         inkscape:connector-curvature="0"
         d="m 296.101,492.673 2.845,0 0,-2.813 -2.845,0 0,2.813 z"
         id="path38439" />
    </clipPath>
    <clipPath
       clipPathUnits="userSpaceOnUse"
       id="clipPath38469">
      <path
         inkscape:connector-curvature="0"
         d="m 316.002,492.854 6.581,0 0,-3.658 -6.581,0 0,3.658 z"
         id="path38471" />
    </clipPath>
    <clipPath
       clipPathUnits="userSpaceOnUse"
       id="clipPath38485">
      <path
         inkscape:connector-curvature="0"
         d="m 317.999,493.95 2.844,0 0,-2.812 -2.844,0 0,2.812 z"
         id="path38487" />
    </clipPath>
    <radialGradient
       fx="0"
       fy="0"
       cx="0"
       cy="0"
       r="1"
       gradientUnits="userSpaceOnUse"
       gradientTransform="matrix(10.904755,0,0,-10.904755,320.82471,492.38086)"
       spreadMethod="pad"
       id="radialGradient38393">
      <stop
         style="stop-opacity:1;stop-color:#ffffff"
         offset="0"
         id="stop38395" />
      <stop
         style="stop-opacity:1;stop-color:#d6e3f2"
         offset="1"
         id="stop38397" />
    </radialGradient>
    <radialGradient
       fx="0"
       fy="0"
       cx="0"
       cy="0"
       r="1"
       gradientUnits="userSpaceOnUse"
       gradientTransform="matrix(10.541962,0,0,-10.541946,293.80908,491.20117)"
       spreadMethod="pad"
       id="radialGradient38373">
      <stop
         style="stop-opacity:1;stop-color:#ffffff"
         offset="0"
         id="stop38375" />
      <stop
         style="stop-opacity:1;stop-color:#d6e3f2"
         offset="1"
         id="stop38377" />
    </radialGradient>
    <clipPath
       clipPathUnits="userSpaceOnUse"
       id="clipPath38317">
      <path
         inkscape:connector-curvature="0"
         d="m 0,1164.116 1404.141,0 L 1404.141,0 0,0 0,1164.116 z"
         id="path38319" />
    </clipPath>
    <clipPath
       clipPathUnits="userSpaceOnUse"
       id="clipPath38325">
      <path
         inkscape:connector-curvature="0"
         d="m 310.012,511.995 21.834,0 0,-27.482 -21.834,0 0,27.482 z"
         id="path38327" />
    </clipPath>
    <clipPath
       clipPathUnits="userSpaceOnUse"
       id="clipPath38341">
      <path
         inkscape:connector-curvature="0"
         d="m 282.873,507.522 21.807,0 0,-23.805 -21.807,0 0,23.805 z"
         id="path38343" />
    </clipPath>
    <clipPath
       clipPathUnits="userSpaceOnUse"
       id="clipPath38271">
      <path
         inkscape:connector-curvature="0"
         d="m 276.687,494.721 c 0,-18.227 13.356,-33 29.833,-33 l 0,0 c 16.476,0 29.834,14.773 29.834,33 l 0,0 c 0,18.226 -13.358,33 -29.834,33 l 0,0 c -16.477,0 -29.833,-14.774 -29.833,-33"
         id="path38273" />
    </clipPath>
    <mask
       maskUnits="userSpaceOnUse"
       x="0"
       y="0"
       width="1"
       height="1"
       id="mask38289">
      <g
         id="g38291">
        <g
           id="g38293">
          <g
             id="g38295">
            <g
               id="g38297">
              <path
                 inkscape:connector-curvature="0"
                 d="m -32767,32767 65534,0 0,-65534 -65534,0 0,65534 z"
                 style="fill:url(#radialGradient38283);stroke:none"
                 id="path38299" />
            </g>
          </g>
        </g>
      </g>
    </mask>
    <radialGradient
       fx="0"
       fy="0"
       cx="0"
       cy="0"
       r="1"
       gradientUnits="userSpaceOnUse"
       gradientTransform="matrix(51.171051,0,0,-36.001511,306.52051,494.7207)"
       spreadMethod="pad"
       id="radialGradient38283">
      <stop
         style="stop-opacity:0;stop-color:#ffffff"
         offset="0"
         id="stop38285" />
      <stop
         style="stop-opacity:1;stop-color:#ffffff"
         offset="1"
         id="stop38287" />
    </radialGradient>
    <radialGradient
       fx="0"
       fy="0"
       cx="0"
       cy="0"
       r="1"
       gradientUnits="userSpaceOnUse"
       gradientTransform="matrix(51.171051,0,0,-36.001511,306.52051,494.7207)"
       spreadMethod="pad"
       id="radialGradient38305">
      <stop
         style="stop-opacity:1;stop-color:#ffffff"
         offset="0"
         id="stop38307" />
      <stop
         style="stop-opacity:1;stop-color:#ffffff"
         offset="1"
         id="stop38309" />
    </radialGradient>
    <radialGradient
       inkscape:collect="always"
       xlink:href="#radialGradient38373"
       id="radialGradient45195"
       gradientUnits="userSpaceOnUse"
       gradientTransform="matrix(10.541962,0,0,-10.541946,293.80908,491.20117)"
       spreadMethod="pad"
       cx="0"
       cy="0"
       fx="0"
       fy="0"
       r="1" />
    <radialGradient
       inkscape:collect="always"
       xlink:href="#radialGradient38393"
       id="radialGradient45197"
       gradientUnits="userSpaceOnUse"
       gradientTransform="matrix(10.904755,0,0,-10.904755,320.82471,492.38086)"
       spreadMethod="pad"
       cx="0"
       cy="0"
       fx="0"
       fy="0"
       r="1" />
    <radialGradient
       inkscape:collect="always"
       xlink:href="#radialGradient38533"
       id="radialGradient45199"
       gradientUnits="userSpaceOnUse"
       gradientTransform="matrix(11.168411,0,0,-11.168411,312.84717,476.83594)"
       spreadMethod="pad"
       cx="0"
       cy="0"
       fx="0"
       fy="0"
       r="1" />
  </defs>
  <sodipodi:namedview
     id="base"
     pagecolor="#ffffff"
     bordercolor="#666666"
     borderopacity="1.0"
     inkscape:pageopacity="0.0"
     inkscape:pageshadow="2"
     inkscape:zoom="1.979899"
     inkscape:cx="138.6243"
     inkscape:cy="722.03051"
     inkscape:document-units="px"
     inkscape:current-layer="layer1"
     showgrid="false"
     inkscape:window-width="1920"
     inkscape:window-height="1028"
     inkscape:window-x="1912"
     inkscape:window-y="-8"
     inkscape:window-maximized="1" />
  <metadata
     id="metadata7">
    <rdf:RDF>
      <cc:Work
         rdf:about="">
        <dc:format>image/svg+xml</dc:format>
        <dc:type
           rdf:resource="http://purl.org/dc/dcmitype/StillImage" />
        <dc:title />
      </cc:Work>
    </rdf:RDF>
  </metadata>
  <g
     inkscape:label="Layer 1"
     inkscape:groupmode="layer"
     id="layer1">
    <path
       transform="matrix(0.87014931,0,0,0.87014931,83.000616,3.6294847)"
       d="m 157.5838,235.14877 a 43.436562,43.436562 0 1 1 -86.873122,0 43.436562,43.436562 0 1 1 86.873122,0 z"
       sodipodi:ry="43.436562"
       sodipodi:rx="43.436562"
       sodipodi:cy="235.14877"
       sodipodi:cx="114.14724"
       id="path11357"
       style="fill:#ffffff;stroke:#000000;stroke-width:9.19382444999999930;stroke-linecap:round;stroke-linejoin:round;stroke-miterlimit:4;stroke-opacity:1;stroke-dasharray:none;fill-opacity:1"
       sodipodi:type="arc" />
    <path
       style="fill:none;stroke:#000000;stroke-width:8;stroke-linecap:round;stroke-linejoin:round;stroke-miterlimit:4;stroke-opacity:1;stroke-dasharray:none"
       d="m 182.32577,247.79828 0,99.32514"
       id="path11385"
       inkscape:connector-curvature="0"
       sodipodi:nodetypes="cc" />
    <path
       style="fill:none;stroke:#000000;stroke-width:8;stroke-linecap:round;stroke-linejoin:round;stroke-miterlimit:4;stroke-opacity:1;stroke-dasharray:none"
       d="m 239.7225,279.44169 -108.11497,0"
       id="path11387"
       inkscape:connector-curvature="0"
       sodipodi:nodetypes="cc" />
    <path
       style="fill:none;stroke:#000000;stroke-width:8;stroke-linecap:round;stroke-linejoin:round;stroke-miterlimit:4;stroke-opacity:1;stroke-dasharray:none"
       d="m 138.81608,464.46772 43.50969,-123.49719 43.50968,123.49719"
       id="path11389"
       inkscape:connector-curvature="0"
       sodipodi:nodetypes="ccc" />
    <g
       id="g45112"
       transform="matrix(0.80697145,0,0,0.80697145,-123.69901,47.325051)">
      <g
         id="g38313"
         transform="matrix(1.25,0,0,-1.25,-5.3535735,815.16423)">
        <g
           clip-path="url(#clipPath38317)"
           id="g38315">
          <g
             id="g38321">
            <g
               id="g38323" />
            <g
               id="g38329">
              <g
                 id="g38331"
                 clip-path="url(#clipPath38325)"
                 style="opacity:0.19999701">
                <g
                   id="g38333"
                   transform="translate(311.1011,495.1377)">
                  <path
                     id="path38335"
                     style="fill:#000000;fill-opacity:1;fill-rule:nonzero;stroke:none"
                     d="m 0,0 c -1.5,-4 -3.5,-10.5 9.625,-10.625 4.875,0 5.75,0.75 5.75,0.75 L 9,-9.625 C 9,-9.625 22.125,-9.875 20.625,4 20.125,6.125 18,3.25 14.5,0.75 11,-1.75 6.625,-1.5 8.5,3.375 c 1.875,4.875 4.75,11 6,11.5 1.25,0.5 1.875,0.125 1.875,0.125 0,0 -1.625,3 -3.375,1.375 C 11.25,14.75 6.375,5.5 3.125,3.375 -0.125,1.25 0,0 0,0"
                     inkscape:connector-curvature="0" />
                </g>
              </g>
            </g>
          </g>
          <g
             id="g38337">
            <g
               id="g38339" />
            <g
               id="g38345">
              <g
                 id="g38347"
                 clip-path="url(#clipPath38341)"
                 style="opacity:0.19999701">
                <g
                   id="g38349"
                   transform="translate(304.2261,494.2627)">
                  <path
                     id="path38351"
                     style="fill:#000000;fill-opacity:1;fill-rule:nonzero;stroke:none"
                     d="m 0,0 c 1.125,-3 0.125,-7.75 -2.625,-9.25 -2.75,-1.5 -8.25,-1.625 -13.75,-0.75 2.75,-0.25 5.125,0.625 5.125,0.625 0,0 -8.375,2.375 -9.875,11.25 -0.625,3.75 -0.125,3.5 3.5,1.375 C -14,1.125 -3.75,-4.625 -6.25,-0.5 c -2.5,4.125 -10,13.375 -12.875,12.5 -2.875,-0.875 3,3.125 5.5,0.125 2.5,-3 13.5,-11 13.5,-11 L 0,0 z"
                     inkscape:connector-curvature="0" />
                </g>
              </g>
            </g>
          </g>
          <g
             transform="translate(304.8091,496.5127)"
             id="g38353">
            <path
               id="path38355"
               style="fill:#000000;fill-opacity:1;fill-rule:nonzero;stroke:none"
               d="m 0,0 c 1.629,-0.354 -0.499,-2.834 -1.166,-2 -0.667,0.832 -7.167,4.166 -10.667,8.166 -3.5,4 -5.334,4.334 -6.667,3.834 -1.333,-0.5 -2,-1 -2,-1 0,0 2.333,3 4.5,3.166 C -13.833,12.332 -6.167,1.334 0,0"
               inkscape:connector-curvature="0" />
          </g>
          <g
             transform="translate(310.1431,496.8447)"
             id="g38357">
            <path
               id="path38359"
               style="fill:#000000;fill-opacity:1;fill-rule:nonzero;stroke:none"
               d="M 0,0 C 0,-1.666 0.667,-2.666 2,-1.666 3.333,-0.666 5.667,1 7.5,3.5 9.333,6 13,15.168 15,14.334 17,13.5 18,13 18,13 18,13 16.333,15.668 14.333,15.668 12.333,15.668 10.5,10.334 8,7 5.5,3.668 2.5,1.168 1.5,1 0.5,0.834 0,0 0,0"
               inkscape:connector-curvature="0" />
          </g>
        </g>
      </g>
      <g
         id="g38361"
         transform="matrix(1.25,0,0,-1.25,-5.3535735,815.16423)">
        <g
           id="g38363">
          <g
             id="g38369">
            <g
               id="g38371">
              <path
                 id="path38379"
                 style="fill:url(#radialGradient45195);stroke:none"
                 d="m 283.809,496.678 c 0,-1.165 2.833,-11.331 13,-11.831 l 0,0 c 6,0 6.5,2.499 6.5,2.499 l 0,0 0.5,1.167 c -2.833,0.165 -9.666,3.5 -13.333,6.166 l 0,0 c -3.667,2.667 -5.833,2.834 -5.833,2.834 l 0,0 c 0,0 -0.11,0.044 -0.25,0.044 l 0,0 c -0.246,0 -0.584,-0.135 -0.584,-0.879"
                 inkscape:connector-curvature="0" />
            </g>
          </g>
        </g>
      </g>
      <g
         id="g38381"
         transform="matrix(1.25,0,0,-1.25,-5.3535735,815.16423)">
        <g
           id="g38383">
          <g
             id="g38389">
            <g
               id="g38391">
              <path
                 id="path38399"
                 style="fill:url(#radialGradient45197);stroke:none"
                 d="m 330.976,498.847 c -1,-0.334 -8.334,-7.168 -19.167,-9.5 l 0,0 c -1.961,-0.424 -1.999,-0.335 -1.666,-0.834 l 0,0 c 0.333,-0.501 4.834,-3.5 12,-2.5 l 0,0 c 7.166,0.999 9.333,9.834 8.833,11.834 l 0,0 c 0.656,0.654 0.898,1.103 0.485,1.103 l 0,0 c -0.112,0 -0.272,-0.033 -0.485,-0.103"
                 inkscape:connector-curvature="0" />
            </g>
          </g>
        </g>
      </g>
      <g
         id="g38401"
         transform="matrix(1.25,0,0,-1.25,-5.3535735,815.16423)">
        <g
           clip-path="url(#clipPath38405)"
           id="g38403">
          <g
             transform="translate(301.3862,491.4756)"
             id="g38409">
            <path
               id="path38411"
               style="fill:#782e25;fill-opacity:1;fill-rule:nonzero;stroke:none"
               d="m 0,0 c 0,-2.354 -1.832,-4.262 -4.093,-4.262 -2.261,0 -4.095,1.908 -4.095,4.262 0,2.354 1.834,4.262 4.095,4.262 C -1.832,4.262 0,2.354 0,0"
               inkscape:connector-curvature="0" />
          </g>
          <g
             transform="translate(301.3862,491.4756)"
             id="g38413">
            <path
               id="path38415"
               style="fill:none;stroke:#471609;stroke-width:0.55500001;stroke-linecap:butt;stroke-linejoin:miter;stroke-miterlimit:10;stroke-opacity:1;stroke-dasharray:none"
               d="m 0,0 c 0,-2.354 -1.832,-4.262 -4.093,-4.262 -2.261,0 -4.095,1.908 -4.095,4.262 0,2.354 1.834,4.262 4.095,4.262 C -1.832,4.262 0,2.354 0,0 z"
               inkscape:connector-curvature="0" />
          </g>
          <g
             id="g38417">
            <g
               id="g38419" />
            <g
               id="g38425">
              <g
                 id="g38427"
                 clip-path="url(#clipPath38421)"
                 style="opacity:0.25">
                <g
                   id="g38429"
                   transform="translate(298.9116,491.5791)">
                  <path
                     id="path38431"
                     style="fill:#ffffff;fill-opacity:1;fill-rule:nonzero;stroke:none"
                     d="m 0,0 c 0.021,-0.102 0.034,-0.205 0.034,-0.313 0,-0.83 -0.68,-1.503 -1.52,-1.503 -0.838,0 -1.52,0.673 -1.52,1.503 0,0.024 0.007,0.047 0.007,0.071 -0.647,-0.147 -1.257,-0.336 -1.807,-0.543 0.294,-1.637 1.646,-2.875 3.271,-2.875 1.764,0 3.191,1.459 3.309,3.301 C 1.183,-0.164 0.587,-0.051 0,0"
                     inkscape:connector-curvature="0" />
                </g>
              </g>
            </g>
          </g>
          <g
             id="g38433">
            <g
               id="g38435" />
            <g
               id="g38441">
              <g
                 id="g38443"
                 clip-path="url(#clipPath38437)"
                 style="opacity:0.35000604">
                <g
                   id="g38445"
                   transform="translate(298.353,490.1572)">
                  <path
                     id="path38447"
                     style="fill:#000000;fill-opacity:1;fill-rule:nonzero;stroke:none"
                     d="M 0,0 C -0.279,-0.182 -0.627,-0.146 -0.773,0.078 -0.922,0.303 -0.813,0.631 -0.532,0.811 -0.251,0.992 0.096,0.957 0.244,0.732 0.391,0.508 0.282,0.18 0,0 m -0.829,2.516 c -0.785,0 -1.423,-0.629 -1.423,-1.407 0,-0.777 0.638,-1.406 1.423,-1.406 0.785,0 1.422,0.629 1.422,1.406 0,0.778 -0.637,1.407 -1.422,1.407"
                     inkscape:connector-curvature="0" />
                </g>
              </g>
            </g>
          </g>
          <g
             transform="translate(300.3452,492.5381)"
             id="g38449">
            <path
               id="path38451"
               style="fill:#ffffff;fill-opacity:1;fill-rule:nonzero;stroke:none"
               d="m 0,0 c -0.466,-0.508 -1.384,-0.434 -2.05,0.166 -0.665,0.6 -0.826,1.496 -0.357,2.002 0.464,0.508 1.382,0.434 2.048,-0.166 C 0.306,1.402 0.466,0.506 0,0"
               inkscape:connector-curvature="0" />
          </g>
          <g
             transform="translate(295.7593,488.71)"
             id="g38453">
            <path
               id="path38455"
               style="fill:#ffffff;fill-opacity:1;fill-rule:nonzero;stroke:none"
               d="m 0,0 c -0.203,-0.223 -0.604,-0.191 -0.895,0.072 -0.291,0.26 -0.36,0.653 -0.156,0.873 0.202,0.223 0.604,0.19 0.895,-0.072 C 0.134,0.611 0.203,0.221 0,0"
               inkscape:connector-curvature="0" />
          </g>
          <g
             transform="translate(323.2827,492.7529)"
             id="g38457">
            <path
               id="path38459"
               style="fill:#782e25;fill-opacity:1;fill-rule:nonzero;stroke:none"
               d="m 0,0 c 0,-2.354 -1.832,-4.262 -4.093,-4.262 -2.261,0 -4.095,1.908 -4.095,4.262 0,2.352 1.834,4.26 4.095,4.26 C -1.832,4.26 0,2.352 0,0"
               inkscape:connector-curvature="0" />
          </g>
          <g
             transform="translate(323.2827,492.7529)"
             id="g38461">
            <path
               id="path38463"
               style="fill:none;stroke:#471609;stroke-width:0.55500001;stroke-linecap:butt;stroke-linejoin:miter;stroke-miterlimit:10;stroke-opacity:1;stroke-dasharray:none"
               d="m 0,0 c 0,-2.354 -1.832,-4.262 -4.093,-4.262 -2.261,0 -4.095,1.908 -4.095,4.262 0,2.352 1.834,4.26 4.095,4.26 C -1.832,4.26 0,2.352 0,0 z"
               inkscape:connector-curvature="0" />
          </g>
          <g
             id="g38465">
            <g
               id="g38467" />
            <g
               id="g38473">
              <g
                 id="g38475"
                 clip-path="url(#clipPath38469)"
                 style="opacity:0.25">
                <g
                   id="g38477"
                   transform="translate(320.8081,492.8545)">
                  <path
                     id="path38479"
                     style="fill:#ffffff;fill-opacity:1;fill-rule:nonzero;stroke:none"
                     d="m 0,0 c 0.022,-0.1 0.035,-0.203 0.035,-0.311 0,-0.832 -0.681,-1.505 -1.52,-1.505 -0.839,0 -1.521,0.673 -1.521,1.505 0,0.024 0.008,0.047 0.008,0.071 -0.647,-0.149 -1.258,-0.336 -1.808,-0.545 0.294,-1.635 1.646,-2.873 3.272,-2.873 1.763,0 3.19,1.459 3.309,3.301 C 1.183,-0.162 0.588,-0.049 0,0"
                     inkscape:connector-curvature="0" />
                </g>
              </g>
            </g>
          </g>
          <g
             id="g38481">
            <g
               id="g38483" />
            <g
               id="g38489">
              <g
                 id="g38491"
                 clip-path="url(#clipPath38485)"
                 style="opacity:0.35000604">
                <g
                   id="g38493"
                   transform="translate(320.2495,491.4326)">
                  <path
                     id="path38495"
                     style="fill:#000000;fill-opacity:1;fill-rule:nonzero;stroke:none"
                     d="M 0,0 C -0.279,-0.18 -0.627,-0.145 -0.773,0.08 -0.922,0.305 -0.813,0.633 -0.531,0.813 -0.25,0.992 0.096,0.959 0.244,0.734 0.391,0.51 0.283,0.182 0,0 m -0.829,2.518 c -0.785,0 -1.422,-0.631 -1.422,-1.407 0,-0.777 0.637,-1.406 1.422,-1.406 0.785,0 1.423,0.629 1.423,1.406 0,0.776 -0.638,1.407 -1.423,1.407"
                     inkscape:connector-curvature="0" />
                </g>
              </g>
            </g>
          </g>
          <g
             transform="translate(322.2417,493.8154)"
             id="g38497">
            <path
               id="path38499"
               style="fill:#ffffff;fill-opacity:1;fill-rule:nonzero;stroke:none"
               d="M 0,0 C -0.466,-0.508 -1.383,-0.436 -2.05,0.166 -2.715,0.764 -2.875,1.66 -2.407,2.168 -1.943,2.674 -1.024,2.602 -0.359,2.002 0.306,1.402 0.467,0.506 0,0"
               inkscape:connector-curvature="0" />
          </g>
          <g
             transform="translate(317.6567,489.9854)"
             id="g38501">
            <path
               id="path38503"
               style="fill:#ffffff;fill-opacity:1;fill-rule:nonzero;stroke:none"
               d="m 0,0 c -0.204,-0.221 -0.604,-0.189 -0.895,0.074 -0.291,0.26 -0.361,0.653 -0.157,0.873 0.203,0.223 0.605,0.19 0.896,-0.072 C 0.133,0.613 0.203,0.221 0,0"
               inkscape:connector-curvature="0" />
          </g>
        </g>
      </g>
      <g
         id="g38505"
         transform="matrix(1.25,0,0,-1.25,-5.3535735,815.16423)">
        <g
           clip-path="url(#clipPath38509)"
           id="g38507">
          <g
             transform="translate(303.9761,488.8877)"
             id="g38513">
            <path
               id="path38515"
               style="fill:#000000;fill-opacity:1;fill-rule:nonzero;stroke:none"
               d="m 0,0 c -2.688,0.375 -8.25,2.625 -12.25,5.625 -4,3 -6.5,3.688 -8.375,4 C -22.5,9.938 -18.938,-6 -5.25,-4.188 -10.063,-4 -18.5,-2.25 -20.188,8.25 -20.438,9 -18.75,8.688 -17.625,8 -16.5,7.313 -5.396,0.063 -0.167,-0.375 0.313,-0.188 0,0 0,0"
               inkscape:connector-curvature="0" />
          </g>
          <g
             transform="translate(310.2261,489.0127)"
             id="g38517">
            <path
               id="path38519"
               style="fill:#000000;fill-opacity:1;fill-rule:nonzero;stroke:none"
               d="m 0,0 c 4.938,1.625 15.25,5.688 20,9.563 0.688,0.625 2,1.125 1.5,0.562 -0.5,-0.562 -0.5,-9 -6.125,-12 C 10.75,-4.375 5.5,-3.063 5.5,-3.063 c 0,0 13.313,-2.625 14.938,11.876 C 8.75,1.75 -0.813,-1.25 0,0"
               inkscape:connector-curvature="0" />
          </g>
        </g>
      </g>
      <g
         id="g38521"
         transform="matrix(1.25,0,0,-1.25,-5.3535735,815.16423)">
        <g
           id="g38523">
          <g
             id="g38529">
            <g
               id="g38531">
              <path
                 id="path38543"
                 style="fill:url(#radialGradient45199);stroke:none"
                 d="m 323.142,482.013 -4.666,-4.834 c -4.666,-4.835 -15.5,-5.166 -20,-5.166 l 0,0 c 0,0 2,-1.001 3.833,-0.834 l 0,0 c 0.7,0.063 1.669,-0.19 2.914,-0.443 l 0,0 c 2.014,-0.409 4.751,-0.818 8.253,0.109 l 0,0 c 5.667,1.499 10.5,10.668 10.5,10.668 l 0,0 c 0,0 1.166,0 2,-0.5 l 0,0 c 0.834,-0.5 1.666,-0.335 1,0.666 l 0,0 c -0.666,1 -4.167,1.334 -4.834,1.666 l 0,0 c -0.06,0.03 -0.102,0.044 -0.127,0.044 l 0,0 c -0.25,0 1.127,-1.376 1.127,-1.376"
                 inkscape:connector-curvature="0" />
            </g>
          </g>
        </g>
      </g>
    </g>
  </g>
</svg>
